<mxfile host="app.diagrams.net" modified="2023-10-24T00:33:46.466Z" agent="Mozilla/5.0 (Windows NT 10.0; Win64; x64) AppleWebKit/537.36 (KHTML, like Gecko) Chrome/118.0.0.0 Safari/537.36" etag="-SXIzb7Poxtcxu1nvd6R" version="22.0.6" type="github">
  <diagram name="PÃ¡gina-1" id="mwf0uzoLAlEMJ_PQ3dxy">
    <mxGraphModel dx="2269" dy="1240" grid="1" gridSize="10" guides="1" tooltips="1" connect="1" arrows="1" fold="1" page="1" pageScale="1" pageWidth="827" pageHeight="1169" math="0" shadow="0">
      <root>
        <mxCell id="0" />
        <mxCell id="1" parent="0" />
        <mxCell id="HSl3-Hk5BajmyqIvVRTS-1" value="&lt;font style=&quot;&quot;&gt;&lt;font style=&quot;font-size: 45px;&quot;&gt;&lt;u&gt;WildcatMarketBase&amp;nbsp;Contract&lt;/u&gt;&lt;/font&gt;&lt;br&gt;&lt;/font&gt;" style="text;html=1;strokeColor=none;fillColor=none;align=center;verticalAlign=middle;whiteSpace=wrap;rounded=0;fontColor=#2B2B2B;" vertex="1" parent="1">
          <mxGeometry x="884" y="60" width="713" height="70" as="geometry" />
        </mxCell>
        <mxCell id="HSl3-Hk5BajmyqIvVRTS-2" value="" style="endArrow=none;html=1;rounded=0;" edge="1" parent="1">
          <mxGeometry relative="1" as="geometry">
            <mxPoint x="6" y="30" as="sourcePoint" />
            <mxPoint x="2476" y="30" as="targetPoint" />
          </mxGeometry>
        </mxCell>
        <mxCell id="HSl3-Hk5BajmyqIvVRTS-3" value="" style="resizable=0;html=1;whiteSpace=wrap;align=right;verticalAlign=bottom;" connectable="0" vertex="1" parent="HSl3-Hk5BajmyqIvVRTS-2">
          <mxGeometry x="1" relative="1" as="geometry" />
        </mxCell>
        <mxCell id="HSl3-Hk5BajmyqIvVRTS-4" value="&lt;div style=&quot;&quot;&gt;&lt;div style=&quot;line-height: 19px;&quot;&gt;&lt;img alt=&quot;Wildcat Protocol&quot; src=&quot;https://code4rena.com/_next/image?url=https%3A%2F%2Fstorage.googleapis.com%2Fcdn-c4-uploads-v0%2Fuploads%2FDuNeVQqitqB.0&amp;amp;w=256&amp;amp;q=75&quot;&gt;&lt;br&gt;&lt;/div&gt;&lt;/div&gt;" style="text;html=1;strokeColor=none;fillColor=none;align=center;verticalAlign=middle;whiteSpace=wrap;rounded=0;" vertex="1" parent="1">
          <mxGeometry x="130" y="1990" width="260" height="260" as="geometry" />
        </mxCell>
        <mxCell id="HSl3-Hk5BajmyqIvVRTS-9" value="&lt;font style=&quot;font-size: 30px;&quot;&gt;Market Configuration&lt;/font&gt;" style="text;html=1;strokeColor=#A9C4EB;fillColor=#000000;align=center;verticalAlign=middle;whiteSpace=wrap;rounded=1;gradientColor=#666666;strokeWidth=3;perimeterSpacing=2;shadow=0;dashed=0;fontColor=#FFFFFF;" vertex="1" parent="1">
          <mxGeometry x="75" y="300" width="365" height="80" as="geometry" />
        </mxCell>
        <mxCell id="HSl3-Hk5BajmyqIvVRTS-27" value="&lt;div style=&quot;font-size: 25px;&quot;&gt; (contract version)&lt;br&gt;&lt;/div&gt;" style="rounded=0;whiteSpace=wrap;html=1;fontFamily=Helvetica;fontSize=11;fontColor=default;gradientColor=none;fillColor=#e1d5e7;align=center;dashed=1;strokeWidth=3;strokeColor=#9673a6;" vertex="1" parent="1">
          <mxGeometry x="1600" y="184.48" width="226" height="45.52" as="geometry" />
        </mxCell>
        <mxCell id="HSl3-Hk5BajmyqIvVRTS-37" value="" style="endArrow=none;html=1;rounded=0;" edge="1" parent="1">
          <mxGeometry relative="1" as="geometry">
            <mxPoint y="2260" as="sourcePoint" />
            <mxPoint x="2470" y="2260" as="targetPoint" />
          </mxGeometry>
        </mxCell>
        <mxCell id="HSl3-Hk5BajmyqIvVRTS-38" value="" style="resizable=0;html=1;whiteSpace=wrap;align=right;verticalAlign=bottom;" connectable="0" vertex="1" parent="HSl3-Hk5BajmyqIvVRTS-37">
          <mxGeometry x="1" relative="1" as="geometry" />
        </mxCell>
        <mxCell id="HSl3-Hk5BajmyqIvVRTS-39" value="&lt;font color=&quot;#ffffff&quot; style=&quot;font-size: 15px;&quot;&gt;Made by Catellatech C4 Wardens&lt;/font&gt;" style="text;html=1;strokeColor=none;fillColor=none;align=center;verticalAlign=middle;whiteSpace=wrap;rounded=0;" vertex="1" parent="1">
          <mxGeometry x="135" y="1980" width="250" height="50" as="geometry" />
        </mxCell>
        <mxCell id="HSl3-Hk5BajmyqIvVRTS-42" value="" style="html=1;shadow=0;dashed=0;align=center;verticalAlign=middle;shape=mxgraph.arrows2.arrow;dy=0.6;dx=40;direction=east;notch=0;rounded=1;fontFamily=Helvetica;fontSize=12;fontColor=#FFFFFF;fillColor=#000000;gradientColor=#666666;strokeColor=#000000;strokeWidth=2;" vertex="1" parent="1">
          <mxGeometry x="470" y="305" width="130" height="70" as="geometry" />
        </mxCell>
        <mxCell id="HSl3-Hk5BajmyqIvVRTS-160" style="edgeStyle=orthogonalEdgeStyle;shape=connector;rounded=0;orthogonalLoop=1;jettySize=auto;html=1;exitX=1;exitY=0.5;exitDx=0;exitDy=0;labelBackgroundColor=default;strokeColor=default;strokeWidth=3;align=center;verticalAlign=middle;fontFamily=Helvetica;fontSize=12;fontColor=#FFFFFF;endArrow=classic;" edge="1" parent="1" source="HSl3-Hk5BajmyqIvVRTS-43">
          <mxGeometry relative="1" as="geometry">
            <mxPoint x="1320" y="339.6923076923076" as="targetPoint" />
          </mxGeometry>
        </mxCell>
        <mxCell id="HSl3-Hk5BajmyqIvVRTS-43" value="&lt;font style=&quot;font-size: 25px;&quot;&gt;This &lt;b&gt;contract has several immutable parameters&lt;/b&gt; that define its &lt;b&gt;behavior&lt;/b&gt; and &lt;b&gt;characteristics&lt;/b&gt;&amp;nbsp;&lt;/font&gt;" style="text;html=1;strokeColor=none;fillColor=none;align=center;verticalAlign=middle;whiteSpace=wrap;rounded=0;fontSize=11;fontFamily=Helvetica;fontColor=default;" vertex="1" parent="1">
          <mxGeometry x="610" y="290" width="480" height="100" as="geometry" />
        </mxCell>
        <mxCell id="HSl3-Hk5BajmyqIvVRTS-45" value="" style="shape=waypoint;sketch=0;fillStyle=solid;size=6;pointerEvents=1;points=[];fillColor=none;resizable=0;rotatable=0;perimeter=centerPerimeter;snapToPoint=1;rounded=1;shadow=0;dashed=0;strokeColor=#000000;strokeWidth=5;align=center;verticalAlign=middle;fontFamily=Helvetica;fontSize=12;fontColor=#FFFFFF;html=1;" vertex="1" parent="1">
          <mxGeometry x="1320" y="200.52" width="20" height="20" as="geometry" />
        </mxCell>
        <mxCell id="HSl3-Hk5BajmyqIvVRTS-163" style="edgeStyle=orthogonalEdgeStyle;shape=connector;rounded=0;orthogonalLoop=1;jettySize=auto;html=1;exitX=0.5;exitY=0;exitDx=0;exitDy=0;entryX=0.5;entryY=0;entryDx=0;entryDy=0;labelBackgroundColor=default;strokeColor=default;strokeWidth=3;align=center;verticalAlign=middle;fontFamily=Helvetica;fontSize=12;fontColor=#FFFFFF;endArrow=classic;" edge="1" parent="1" source="HSl3-Hk5BajmyqIvVRTS-47" target="HSl3-Hk5BajmyqIvVRTS-161">
          <mxGeometry relative="1" as="geometry" />
        </mxCell>
        <mxCell id="HSl3-Hk5BajmyqIvVRTS-182" style="edgeStyle=orthogonalEdgeStyle;shape=connector;rounded=0;orthogonalLoop=1;jettySize=auto;html=1;exitX=0.5;exitY=1;exitDx=0;exitDy=0;entryX=0.5;entryY=1;entryDx=0;entryDy=0;labelBackgroundColor=default;strokeColor=default;strokeWidth=3;align=center;verticalAlign=middle;fontFamily=Helvetica;fontSize=12;fontColor=#FFFFFF;endArrow=classic;" edge="1" parent="1" source="HSl3-Hk5BajmyqIvVRTS-47" target="HSl3-Hk5BajmyqIvVRTS-178">
          <mxGeometry relative="1" as="geometry" />
        </mxCell>
        <mxCell id="HSl3-Hk5BajmyqIvVRTS-47" value="&lt;font style=&quot;font-size: 20px;&quot;&gt;Such as&lt;/font&gt;" style="text;html=1;strokeColor=none;fillColor=none;align=center;verticalAlign=middle;whiteSpace=wrap;rounded=0;fontSize=11;fontFamily=Helvetica;fontColor=default;" vertex="1" parent="1">
          <mxGeometry x="1140" y="305" width="140" height="28.97" as="geometry" />
        </mxCell>
        <mxCell id="HSl3-Hk5BajmyqIvVRTS-84" value="" style="html=1;shadow=0;dashed=0;align=center;verticalAlign=middle;shape=mxgraph.arrows2.arrow;dy=0.6;dx=40;direction=south;notch=0;rounded=1;fontFamily=Helvetica;fontSize=12;fontColor=#FFFFFF;fillColor=#000000;gradientColor=#666666;strokeColor=#000000;strokeWidth=2;" vertex="1" parent="1">
          <mxGeometry x="222.5" y="760" width="70" height="130" as="geometry" />
        </mxCell>
        <mxCell id="HSl3-Hk5BajmyqIvVRTS-85" value="&lt;font style=&quot;font-size: 30px;&quot;&gt;Market State&lt;/font&gt;" style="text;html=1;strokeColor=#A9C4EB;fillColor=#000000;align=center;verticalAlign=middle;whiteSpace=wrap;rounded=1;gradientColor=#666666;strokeWidth=3;perimeterSpacing=2;shadow=0;dashed=0;fontColor=#FFFFFF;" vertex="1" parent="1">
          <mxGeometry x="75" y="900" width="365" height="80" as="geometry" />
        </mxCell>
        <mxCell id="HSl3-Hk5BajmyqIvVRTS-164" style="edgeStyle=orthogonalEdgeStyle;shape=connector;rounded=0;orthogonalLoop=1;jettySize=auto;html=1;exitX=1;exitY=0.5;exitDx=0;exitDy=0;labelBackgroundColor=default;strokeColor=default;strokeWidth=3;align=center;verticalAlign=middle;fontFamily=Helvetica;fontSize=12;fontColor=#FFFFFF;endArrow=classic;" edge="1" parent="1" source="HSl3-Hk5BajmyqIvVRTS-161">
          <mxGeometry relative="1" as="geometry">
            <mxPoint x="1590" y="210" as="targetPoint" />
          </mxGeometry>
        </mxCell>
        <mxCell id="HSl3-Hk5BajmyqIvVRTS-161" value="&lt;font style=&quot;font-size: 25px;&quot;&gt;&lt;b&gt;version&lt;/b&gt;&lt;/font&gt;" style="text;html=1;strokeColor=none;fillColor=none;align=center;verticalAlign=middle;whiteSpace=wrap;rounded=0;fontSize=11;fontFamily=Helvetica;fontColor=default;" vertex="1" parent="1">
          <mxGeometry x="1350" y="191.03" width="110" height="38.97" as="geometry" />
        </mxCell>
        <mxCell id="HSl3-Hk5BajmyqIvVRTS-165" value="" style="shape=waypoint;sketch=0;fillStyle=solid;size=6;pointerEvents=1;points=[];fillColor=none;resizable=0;rotatable=0;perimeter=centerPerimeter;snapToPoint=1;rounded=1;shadow=0;dashed=0;strokeColor=#000000;strokeWidth=5;align=center;verticalAlign=middle;fontFamily=Helvetica;fontSize=12;fontColor=#FFFFFF;html=1;" vertex="1" parent="1">
          <mxGeometry x="1320" y="260" width="20" height="20" as="geometry" />
        </mxCell>
        <mxCell id="HSl3-Hk5BajmyqIvVRTS-167" style="edgeStyle=orthogonalEdgeStyle;shape=connector;rounded=0;orthogonalLoop=1;jettySize=auto;html=1;exitX=1;exitY=0.5;exitDx=0;exitDy=0;labelBackgroundColor=default;strokeColor=default;strokeWidth=3;align=center;verticalAlign=middle;fontFamily=Helvetica;fontSize=12;fontColor=#FFFFFF;endArrow=classic;" edge="1" parent="1" source="HSl3-Hk5BajmyqIvVRTS-166">
          <mxGeometry relative="1" as="geometry">
            <mxPoint x="1590" y="270" as="targetPoint" />
          </mxGeometry>
        </mxCell>
        <mxCell id="HSl3-Hk5BajmyqIvVRTS-166" value="&lt;font style=&quot;font-size: 25px;&quot;&gt;&lt;b&gt;sentinel&lt;/b&gt;&lt;/font&gt;" style="text;html=1;strokeColor=none;fillColor=none;align=center;verticalAlign=middle;whiteSpace=wrap;rounded=0;fontSize=11;fontFamily=Helvetica;fontColor=default;" vertex="1" parent="1">
          <mxGeometry x="1350" y="251.03" width="110" height="38.97" as="geometry" />
        </mxCell>
        <mxCell id="HSl3-Hk5BajmyqIvVRTS-168" value="&lt;div style=&quot;font-size: 25px;&quot;&gt;(account with blacklist control to block sanctioned addresses)&lt;br&gt;&lt;/div&gt;" style="rounded=0;whiteSpace=wrap;html=1;fontFamily=Helvetica;fontSize=11;fontColor=default;gradientColor=none;fillColor=#e1d5e7;align=center;dashed=1;strokeWidth=3;strokeColor=#9673a6;" vertex="1" parent="1">
          <mxGeometry x="1600" y="255" width="700" height="35" as="geometry" />
        </mxCell>
        <mxCell id="HSl3-Hk5BajmyqIvVRTS-169" value="" style="shape=waypoint;sketch=0;fillStyle=solid;size=6;pointerEvents=1;points=[];fillColor=none;resizable=0;rotatable=0;perimeter=centerPerimeter;snapToPoint=1;rounded=1;shadow=0;dashed=0;strokeColor=#000000;strokeWidth=5;align=center;verticalAlign=middle;fontFamily=Helvetica;fontSize=12;fontColor=#FFFFFF;html=1;" vertex="1" parent="1">
          <mxGeometry x="1320" y="313.97" width="20" height="20" as="geometry" />
        </mxCell>
        <mxCell id="HSl3-Hk5BajmyqIvVRTS-171" style="edgeStyle=orthogonalEdgeStyle;shape=connector;rounded=0;orthogonalLoop=1;jettySize=auto;html=1;exitX=1;exitY=0.5;exitDx=0;exitDy=0;labelBackgroundColor=default;strokeColor=default;strokeWidth=3;align=center;verticalAlign=middle;fontFamily=Helvetica;fontSize=12;fontColor=#FFFFFF;endArrow=classic;" edge="1" parent="1" source="HSl3-Hk5BajmyqIvVRTS-170">
          <mxGeometry relative="1" as="geometry">
            <mxPoint x="1590" y="324.30769230769226" as="targetPoint" />
          </mxGeometry>
        </mxCell>
        <mxCell id="HSl3-Hk5BajmyqIvVRTS-170" value="&lt;font style=&quot;font-size: 25px;&quot;&gt;&lt;b&gt;borrower&lt;/b&gt;&lt;/font&gt;" style="text;html=1;strokeColor=none;fillColor=none;align=center;verticalAlign=middle;whiteSpace=wrap;rounded=0;fontSize=11;fontFamily=Helvetica;fontColor=default;" vertex="1" parent="1">
          <mxGeometry x="1360" y="304.99999999999994" width="110" height="38.97" as="geometry" />
        </mxCell>
        <mxCell id="HSl3-Hk5BajmyqIvVRTS-172" value="&lt;div style=&quot;font-size: 25px;&quot;&gt;(authorized account to borrow assets from the market)&lt;br&gt;&lt;/div&gt;" style="rounded=0;whiteSpace=wrap;html=1;fontFamily=Helvetica;fontSize=11;fontColor=default;gradientColor=none;fillColor=#e1d5e7;align=center;dashed=1;strokeWidth=3;strokeColor=#9673a6;" vertex="1" parent="1">
          <mxGeometry x="1600" y="301.47" width="620" height="46.03" as="geometry" />
        </mxCell>
        <mxCell id="HSl3-Hk5BajmyqIvVRTS-173" value="" style="shape=waypoint;sketch=0;fillStyle=solid;size=6;pointerEvents=1;points=[];fillColor=none;resizable=0;rotatable=0;perimeter=centerPerimeter;snapToPoint=1;rounded=1;shadow=0;dashed=0;strokeColor=#000000;strokeWidth=5;align=center;verticalAlign=middle;fontFamily=Helvetica;fontSize=12;fontColor=#FFFFFF;html=1;" vertex="1" parent="1">
          <mxGeometry x="1320" y="370" width="20" height="20" as="geometry" />
        </mxCell>
        <mxCell id="HSl3-Hk5BajmyqIvVRTS-175" style="edgeStyle=orthogonalEdgeStyle;shape=connector;rounded=0;orthogonalLoop=1;jettySize=auto;html=1;exitX=1;exitY=0.5;exitDx=0;exitDy=0;labelBackgroundColor=default;strokeColor=default;strokeWidth=3;align=center;verticalAlign=middle;fontFamily=Helvetica;fontSize=12;fontColor=#FFFFFF;endArrow=classic;" edge="1" parent="1" source="HSl3-Hk5BajmyqIvVRTS-174">
          <mxGeometry relative="1" as="geometry">
            <mxPoint x="1590" y="379.6923076923076" as="targetPoint" />
          </mxGeometry>
        </mxCell>
        <mxCell id="HSl3-Hk5BajmyqIvVRTS-174" value="&lt;font style=&quot;font-size: 25px;&quot;&gt;&lt;b&gt;feeRecipient&lt;/b&gt;&lt;/font&gt;" style="text;html=1;strokeColor=none;fillColor=none;align=center;verticalAlign=middle;whiteSpace=wrap;rounded=0;fontSize=11;fontFamily=Helvetica;fontColor=default;" vertex="1" parent="1">
          <mxGeometry x="1360" y="360.51" width="150" height="39.49" as="geometry" />
        </mxCell>
        <mxCell id="HSl3-Hk5BajmyqIvVRTS-176" value="&lt;div style=&quot;font-size: 25px;&quot;&gt;(authorized account to borrow assets from the market)&lt;br&gt;&lt;/div&gt;" style="rounded=0;whiteSpace=wrap;html=1;fontFamily=Helvetica;fontSize=11;fontColor=default;gradientColor=none;fillColor=#e1d5e7;align=center;dashed=1;strokeWidth=3;strokeColor=#9673a6;" vertex="1" parent="1">
          <mxGeometry x="1600" y="357.63" width="620" height="44.74" as="geometry" />
        </mxCell>
        <mxCell id="HSl3-Hk5BajmyqIvVRTS-177" value="" style="shape=waypoint;sketch=0;fillStyle=solid;size=6;pointerEvents=1;points=[];fillColor=none;resizable=0;rotatable=0;perimeter=centerPerimeter;snapToPoint=1;rounded=1;shadow=0;dashed=0;strokeColor=#000000;strokeWidth=5;align=center;verticalAlign=middle;fontFamily=Helvetica;fontSize=12;fontColor=#FFFFFF;html=1;" vertex="1" parent="1">
          <mxGeometry x="1320" y="420" width="20" height="20" as="geometry" />
        </mxCell>
        <mxCell id="HSl3-Hk5BajmyqIvVRTS-179" style="edgeStyle=orthogonalEdgeStyle;shape=connector;rounded=0;orthogonalLoop=1;jettySize=auto;html=1;exitX=1;exitY=0.5;exitDx=0;exitDy=0;labelBackgroundColor=default;strokeColor=default;strokeWidth=3;align=center;verticalAlign=middle;fontFamily=Helvetica;fontSize=12;fontColor=#FFFFFF;endArrow=classic;" edge="1" parent="1" source="HSl3-Hk5BajmyqIvVRTS-178">
          <mxGeometry relative="1" as="geometry">
            <mxPoint x="1580" y="430.46153846153834" as="targetPoint" />
          </mxGeometry>
        </mxCell>
        <mxCell id="HSl3-Hk5BajmyqIvVRTS-178" value="&lt;font style=&quot;font-size: 25px;&quot;&gt;&lt;b&gt;protocolFeeBips&lt;/b&gt;&lt;/font&gt;" style="text;html=1;strokeColor=none;fillColor=none;align=center;verticalAlign=middle;whiteSpace=wrap;rounded=0;fontSize=11;fontFamily=Helvetica;fontColor=default;" vertex="1" parent="1">
          <mxGeometry x="1360" y="410.25" width="200" height="39.75" as="geometry" />
        </mxCell>
        <mxCell id="HSl3-Hk5BajmyqIvVRTS-180" value="&lt;div style=&quot;font-size: 25px;&quot;&gt;(protocol fee added to the interest paid by the borrower)&lt;br&gt;&lt;/div&gt;" style="rounded=0;whiteSpace=wrap;html=1;fontFamily=Helvetica;fontSize=11;fontColor=default;gradientColor=none;fillColor=#e1d5e7;align=center;dashed=1;strokeWidth=3;strokeColor=#9673a6;" vertex="1" parent="1">
          <mxGeometry x="1600" y="410.25" width="630" height="44.74" as="geometry" />
        </mxCell>
        <mxCell id="HSl3-Hk5BajmyqIvVRTS-181" value="" style="shape=waypoint;sketch=0;fillStyle=solid;size=6;pointerEvents=1;points=[];fillColor=none;resizable=0;rotatable=0;perimeter=centerPerimeter;snapToPoint=1;rounded=1;shadow=0;dashed=0;strokeColor=#000000;strokeWidth=5;align=center;verticalAlign=middle;fontFamily=Helvetica;fontSize=12;fontColor=#FFFFFF;html=1;" vertex="1" parent="1">
          <mxGeometry x="2030" y="530.01" width="20" height="20" as="geometry" />
        </mxCell>
        <mxCell id="HSl3-Hk5BajmyqIvVRTS-184" value="" style="html=1;shadow=0;dashed=1;align=center;verticalAlign=middle;shape=mxgraph.arrows2.uTurnArrow;dy=11;arrowHead=43;dx2=25;rounded=1;strokeColor=#B5739D;strokeWidth=4;fontFamily=Helvetica;fontSize=12;fontColor=#FFFFFF;fillColor=none;gradientColor=#666666;direction=west;" vertex="1" parent="1">
          <mxGeometry x="2290" y="380" width="100" height="170" as="geometry" />
        </mxCell>
        <mxCell id="HSl3-Hk5BajmyqIvVRTS-188" style="edgeStyle=orthogonalEdgeStyle;shape=connector;rounded=0;orthogonalLoop=1;jettySize=auto;html=1;exitX=0;exitY=0.5;exitDx=0;exitDy=0;entryX=0.5;entryY=0;entryDx=0;entryDy=0;labelBackgroundColor=default;strokeColor=default;strokeWidth=3;align=center;verticalAlign=middle;fontFamily=Helvetica;fontSize=12;fontColor=#FFFFFF;endArrow=classic;" edge="1" parent="1" source="HSl3-Hk5BajmyqIvVRTS-185" target="HSl3-Hk5BajmyqIvVRTS-187">
          <mxGeometry relative="1" as="geometry" />
        </mxCell>
        <mxCell id="HSl3-Hk5BajmyqIvVRTS-202" style="edgeStyle=orthogonalEdgeStyle;shape=connector;rounded=0;orthogonalLoop=1;jettySize=auto;html=1;exitX=0;exitY=0.5;exitDx=0;exitDy=0;entryX=0.5;entryY=1;entryDx=0;entryDy=0;labelBackgroundColor=default;strokeColor=default;strokeWidth=3;align=center;verticalAlign=middle;fontFamily=Helvetica;fontSize=12;fontColor=#FFFFFF;endArrow=classic;" edge="1" parent="1" source="HSl3-Hk5BajmyqIvVRTS-185" target="HSl3-Hk5BajmyqIvVRTS-199">
          <mxGeometry relative="1" as="geometry" />
        </mxCell>
        <mxCell id="HSl3-Hk5BajmyqIvVRTS-185" value="&lt;font style=&quot;font-size: 35px;&quot;&gt;&lt;b&gt;Continuation&lt;/b&gt;&lt;/font&gt;" style="text;html=1;strokeColor=none;fillColor=none;align=center;verticalAlign=middle;whiteSpace=wrap;rounded=0;fontSize=11;fontFamily=Helvetica;fontColor=default;" vertex="1" parent="1">
          <mxGeometry x="2210" y="565" width="230" height="40" as="geometry" />
        </mxCell>
        <mxCell id="HSl3-Hk5BajmyqIvVRTS-186" value="" style="shape=waypoint;sketch=0;fillStyle=solid;size=6;pointerEvents=1;points=[];fillColor=none;resizable=0;rotatable=0;perimeter=centerPerimeter;snapToPoint=1;rounded=1;shadow=0;dashed=0;strokeColor=#000000;strokeWidth=5;align=center;verticalAlign=middle;fontFamily=Helvetica;fontSize=12;fontColor=#FFFFFF;html=1;" vertex="1" parent="1">
          <mxGeometry x="2030" y="585" width="20" height="20" as="geometry" />
        </mxCell>
        <mxCell id="HSl3-Hk5BajmyqIvVRTS-189" style="edgeStyle=orthogonalEdgeStyle;shape=connector;rounded=0;orthogonalLoop=1;jettySize=auto;html=1;exitX=0;exitY=0.5;exitDx=0;exitDy=0;labelBackgroundColor=default;strokeColor=default;strokeWidth=3;align=center;verticalAlign=middle;fontFamily=Helvetica;fontSize=12;fontColor=#FFFFFF;endArrow=classic;" edge="1" parent="1" source="HSl3-Hk5BajmyqIvVRTS-187">
          <mxGeometry relative="1" as="geometry">
            <mxPoint x="1560" y="539.6923076923076" as="targetPoint" />
          </mxGeometry>
        </mxCell>
        <mxCell id="HSl3-Hk5BajmyqIvVRTS-187" value="&lt;font style=&quot;font-size: 25px;&quot;&gt;&lt;b&gt;delinquencyFeeBips&lt;/b&gt;&lt;/font&gt;" style="text;html=1;strokeColor=none;fillColor=none;align=center;verticalAlign=middle;whiteSpace=wrap;rounded=0;fontSize=11;fontFamily=Helvetica;fontColor=default;" vertex="1" parent="1">
          <mxGeometry x="1770" y="520.13" width="250" height="39.75" as="geometry" />
        </mxCell>
        <mxCell id="HSl3-Hk5BajmyqIvVRTS-190" value="&lt;div style=&quot;font-size: 25px;&quot;&gt;(penalty fee added to the interest earned by lenders)&lt;br&gt;&lt;/div&gt;" style="rounded=0;whiteSpace=wrap;html=1;fontFamily=Helvetica;fontSize=11;fontColor=default;gradientColor=none;fillColor=#e1d5e7;align=center;dashed=1;strokeWidth=3;strokeColor=#9673a6;" vertex="1" parent="1">
          <mxGeometry x="940" y="517.64" width="610" height="44.74" as="geometry" />
        </mxCell>
        <mxCell id="HSl3-Hk5BajmyqIvVRTS-192" style="edgeStyle=orthogonalEdgeStyle;shape=connector;rounded=0;orthogonalLoop=1;jettySize=auto;html=1;exitX=0;exitY=0.5;exitDx=0;exitDy=0;labelBackgroundColor=default;strokeColor=default;strokeWidth=3;align=center;verticalAlign=middle;fontFamily=Helvetica;fontSize=12;fontColor=#FFFFFF;endArrow=classic;" edge="1" parent="1" source="HSl3-Hk5BajmyqIvVRTS-191">
          <mxGeometry relative="1" as="geometry">
            <mxPoint x="1560" y="595" as="targetPoint" />
          </mxGeometry>
        </mxCell>
        <mxCell id="HSl3-Hk5BajmyqIvVRTS-191" value="&lt;font style=&quot;font-size: 25px;&quot;&gt;&lt;b&gt;delinquencyGracePeriod&lt;/b&gt;&lt;/font&gt;" style="text;html=1;strokeColor=none;fillColor=none;align=center;verticalAlign=middle;whiteSpace=wrap;rounded=0;fontSize=11;fontFamily=Helvetica;fontColor=default;" vertex="1" parent="1">
          <mxGeometry x="1720" y="575.12" width="310" height="39.75" as="geometry" />
        </mxCell>
        <mxCell id="HSl3-Hk5BajmyqIvVRTS-193" value="&lt;div style=&quot;font-size: 25px;&quot;&gt;(grace period before delinquency penalty is applied)&lt;br&gt;&lt;/div&gt;" style="rounded=0;whiteSpace=wrap;html=1;fontFamily=Helvetica;fontSize=11;fontColor=default;gradientColor=none;fillColor=#e1d5e7;align=center;dashed=1;strokeWidth=3;strokeColor=#9673a6;" vertex="1" parent="1">
          <mxGeometry x="940" y="572.63" width="610" height="44.74" as="geometry" />
        </mxCell>
        <mxCell id="HSl3-Hk5BajmyqIvVRTS-194" value="" style="shape=waypoint;sketch=0;fillStyle=solid;size=6;pointerEvents=1;points=[];fillColor=none;resizable=0;rotatable=0;perimeter=centerPerimeter;snapToPoint=1;rounded=1;shadow=0;dashed=0;strokeColor=#000000;strokeWidth=5;align=center;verticalAlign=middle;fontFamily=Helvetica;fontSize=12;fontColor=#FFFFFF;html=1;" vertex="1" parent="1">
          <mxGeometry x="2030" y="640" width="20" height="20" as="geometry" />
        </mxCell>
        <mxCell id="HSl3-Hk5BajmyqIvVRTS-196" style="edgeStyle=orthogonalEdgeStyle;shape=connector;rounded=0;orthogonalLoop=1;jettySize=auto;html=1;exitX=0;exitY=0.5;exitDx=0;exitDy=0;labelBackgroundColor=default;strokeColor=default;strokeWidth=3;align=center;verticalAlign=middle;fontFamily=Helvetica;fontSize=12;fontColor=#FFFFFF;endArrow=classic;" edge="1" parent="1" source="HSl3-Hk5BajmyqIvVRTS-195">
          <mxGeometry relative="1" as="geometry">
            <mxPoint x="1560" y="650.4615384615383" as="targetPoint" />
          </mxGeometry>
        </mxCell>
        <mxCell id="HSl3-Hk5BajmyqIvVRTS-195" value="&lt;font style=&quot;font-size: 25px;&quot;&gt;&lt;b&gt;controller&lt;/b&gt;&lt;/font&gt;" style="text;html=1;strokeColor=none;fillColor=none;align=center;verticalAlign=middle;whiteSpace=wrap;rounded=0;fontSize=11;fontFamily=Helvetica;fontColor=default;" vertex="1" parent="1">
          <mxGeometry x="1900" y="630.13" width="130" height="39.75" as="geometry" />
        </mxCell>
        <mxCell id="HSl3-Hk5BajmyqIvVRTS-197" value="&lt;div style=&quot;font-size: 25px;&quot;&gt;(market controller&#39;s address)&lt;br&gt;&lt;/div&gt;" style="rounded=0;whiteSpace=wrap;html=1;fontFamily=Helvetica;fontSize=11;fontColor=default;gradientColor=none;fillColor=#e1d5e7;align=center;dashed=1;strokeWidth=3;strokeColor=#9673a6;" vertex="1" parent="1">
          <mxGeometry x="940" y="627.63" width="610" height="44.74" as="geometry" />
        </mxCell>
        <mxCell id="HSl3-Hk5BajmyqIvVRTS-198" value="" style="shape=waypoint;sketch=0;fillStyle=solid;size=6;pointerEvents=1;points=[];fillColor=none;resizable=0;rotatable=0;perimeter=centerPerimeter;snapToPoint=1;rounded=1;shadow=0;dashed=0;strokeColor=#000000;strokeWidth=5;align=center;verticalAlign=middle;fontFamily=Helvetica;fontSize=12;fontColor=#FFFFFF;html=1;" vertex="1" parent="1">
          <mxGeometry x="2030" y="700" width="20" height="20" as="geometry" />
        </mxCell>
        <mxCell id="HSl3-Hk5BajmyqIvVRTS-200" style="edgeStyle=orthogonalEdgeStyle;shape=connector;rounded=0;orthogonalLoop=1;jettySize=auto;html=1;exitX=0;exitY=0.5;exitDx=0;exitDy=0;labelBackgroundColor=default;strokeColor=default;strokeWidth=3;align=center;verticalAlign=middle;fontFamily=Helvetica;fontSize=12;fontColor=#FFFFFF;endArrow=classic;" edge="1" parent="1" source="HSl3-Hk5BajmyqIvVRTS-199">
          <mxGeometry relative="1" as="geometry">
            <mxPoint x="1560" y="710.4615384615383" as="targetPoint" />
          </mxGeometry>
        </mxCell>
        <mxCell id="HSl3-Hk5BajmyqIvVRTS-199" value="&lt;font style=&quot;font-size: 25px;&quot;&gt;&lt;b&gt;asset&lt;/b&gt;&lt;/font&gt;" style="text;html=1;strokeColor=none;fillColor=none;align=center;verticalAlign=middle;whiteSpace=wrap;rounded=0;fontSize=11;fontFamily=Helvetica;fontColor=default;" vertex="1" parent="1">
          <mxGeometry x="1940" y="690.12" width="80" height="39.75" as="geometry" />
        </mxCell>
        <mxCell id="HSl3-Hk5BajmyqIvVRTS-201" value="&lt;div style=&quot;font-size: 25px;&quot;&gt;(underlying asset address)&lt;br&gt;&lt;/div&gt;" style="rounded=0;whiteSpace=wrap;html=1;fontFamily=Helvetica;fontSize=11;fontColor=default;gradientColor=none;fillColor=#e1d5e7;align=center;dashed=1;strokeWidth=3;strokeColor=#9673a6;" vertex="1" parent="1">
          <mxGeometry x="940" y="685.13" width="610" height="44.74" as="geometry" />
        </mxCell>
        <mxCell id="HSl3-Hk5BajmyqIvVRTS-203" value="" style="shape=waypoint;sketch=0;fillStyle=solid;size=6;pointerEvents=1;points=[];fillColor=none;resizable=0;rotatable=0;perimeter=centerPerimeter;snapToPoint=1;rounded=1;shadow=0;dashed=0;strokeColor=#000000;strokeWidth=5;align=center;verticalAlign=middle;fontFamily=Helvetica;fontSize=12;fontColor=#FFFFFF;html=1;" vertex="1" parent="1">
          <mxGeometry x="864" y="530.01" width="20" height="20" as="geometry" />
        </mxCell>
        <mxCell id="HSl3-Hk5BajmyqIvVRTS-204" value="" style="shape=waypoint;sketch=0;fillStyle=solid;size=6;pointerEvents=1;points=[];fillColor=none;resizable=0;rotatable=0;perimeter=centerPerimeter;snapToPoint=1;rounded=1;shadow=0;dashed=0;strokeColor=#000000;strokeWidth=5;align=center;verticalAlign=middle;fontFamily=Helvetica;fontSize=12;fontColor=#FFFFFF;html=1;" vertex="1" parent="1">
          <mxGeometry x="864" y="614.87" width="20" height="20" as="geometry" />
        </mxCell>
        <mxCell id="HSl3-Hk5BajmyqIvVRTS-205" value="" style="shape=waypoint;sketch=0;fillStyle=solid;size=6;pointerEvents=1;points=[];fillColor=none;resizable=0;rotatable=0;perimeter=centerPerimeter;snapToPoint=1;rounded=1;shadow=0;dashed=0;strokeColor=#000000;strokeWidth=5;align=center;verticalAlign=middle;fontFamily=Helvetica;fontSize=12;fontColor=#FFFFFF;html=1;" vertex="1" parent="1">
          <mxGeometry x="864" y="699.99" width="20" height="20" as="geometry" />
        </mxCell>
        <mxCell id="HSl3-Hk5BajmyqIvVRTS-207" style="edgeStyle=orthogonalEdgeStyle;shape=connector;rounded=0;orthogonalLoop=1;jettySize=auto;html=1;exitX=0;exitY=0.5;exitDx=0;exitDy=0;labelBackgroundColor=default;strokeColor=default;strokeWidth=3;align=center;verticalAlign=middle;fontFamily=Helvetica;fontSize=12;fontColor=#FFFFFF;endArrow=classic;" edge="1" parent="1" source="HSl3-Hk5BajmyqIvVRTS-206">
          <mxGeometry relative="1" as="geometry">
            <mxPoint x="520" y="540" as="targetPoint" />
          </mxGeometry>
        </mxCell>
        <mxCell id="HSl3-Hk5BajmyqIvVRTS-206" value="&lt;font style=&quot;font-size: 25px;&quot;&gt;&lt;b&gt;decimals&lt;/b&gt;&lt;/font&gt;" style="text;html=1;strokeColor=none;fillColor=none;align=center;verticalAlign=middle;whiteSpace=wrap;rounded=0;fontSize=11;fontFamily=Helvetica;fontColor=default;" vertex="1" parent="1">
          <mxGeometry x="740" y="520.13" width="120" height="39.75" as="geometry" />
        </mxCell>
        <mxCell id="HSl3-Hk5BajmyqIvVRTS-208" value="&lt;div style=&quot;font-size: 25px;&quot;&gt; (number of decimals for the token)&lt;br&gt;&lt;/div&gt;" style="rounded=0;whiteSpace=wrap;html=1;fontFamily=Helvetica;fontSize=11;fontColor=default;gradientColor=none;fillColor=#e1d5e7;align=center;dashed=1;strokeWidth=3;strokeColor=#9673a6;" vertex="1" parent="1">
          <mxGeometry x="110" y="517.64" width="390" height="44.74" as="geometry" />
        </mxCell>
        <mxCell id="HSl3-Hk5BajmyqIvVRTS-210" style="edgeStyle=orthogonalEdgeStyle;shape=connector;rounded=0;orthogonalLoop=1;jettySize=auto;html=1;exitX=0;exitY=0.5;exitDx=0;exitDy=0;labelBackgroundColor=default;strokeColor=default;strokeWidth=3;align=center;verticalAlign=middle;fontFamily=Helvetica;fontSize=12;fontColor=#FFFFFF;endArrow=classic;" edge="1" parent="1" source="HSl3-Hk5BajmyqIvVRTS-209">
          <mxGeometry relative="1" as="geometry">
            <mxPoint x="520" y="624" as="targetPoint" />
          </mxGeometry>
        </mxCell>
        <mxCell id="HSl3-Hk5BajmyqIvVRTS-209" value="&lt;font style=&quot;font-size: 25px;&quot;&gt;&lt;b&gt;name&lt;/b&gt;&lt;/font&gt;" style="text;html=1;strokeColor=none;fillColor=none;align=center;verticalAlign=middle;whiteSpace=wrap;rounded=0;fontSize=11;fontFamily=Helvetica;fontColor=default;" vertex="1" parent="1">
          <mxGeometry x="790" y="604.99" width="74" height="39.75" as="geometry" />
        </mxCell>
        <mxCell id="HSl3-Hk5BajmyqIvVRTS-211" value="&lt;div style=&quot;font-size: 25px;&quot;&gt;(market token&#39;s name)&lt;br&gt;&lt;/div&gt;" style="rounded=0;whiteSpace=wrap;html=1;fontFamily=Helvetica;fontSize=11;fontColor=default;gradientColor=none;fillColor=#e1d5e7;align=center;dashed=1;strokeWidth=3;strokeColor=#9673a6;" vertex="1" parent="1">
          <mxGeometry x="110" y="605" width="390" height="44.74" as="geometry" />
        </mxCell>
        <mxCell id="HSl3-Hk5BajmyqIvVRTS-213" style="edgeStyle=orthogonalEdgeStyle;shape=connector;rounded=0;orthogonalLoop=1;jettySize=auto;html=1;exitX=0;exitY=0.5;exitDx=0;exitDy=0;labelBackgroundColor=default;strokeColor=default;strokeWidth=3;align=center;verticalAlign=middle;fontFamily=Helvetica;fontSize=12;fontColor=#FFFFFF;endArrow=classic;" edge="1" parent="1" source="HSl3-Hk5BajmyqIvVRTS-212">
          <mxGeometry relative="1" as="geometry">
            <mxPoint x="519.9999999999998" y="710.4615384615383" as="targetPoint" />
          </mxGeometry>
        </mxCell>
        <mxCell id="HSl3-Hk5BajmyqIvVRTS-212" value="&lt;font style=&quot;font-size: 25px;&quot;&gt;&lt;b&gt;symbol&lt;/b&gt;&lt;/font&gt;" style="text;html=1;strokeColor=none;fillColor=none;align=center;verticalAlign=middle;whiteSpace=wrap;rounded=0;fontSize=11;fontFamily=Helvetica;fontColor=default;" vertex="1" parent="1">
          <mxGeometry x="770" y="690.11" width="94" height="39.75" as="geometry" />
        </mxCell>
        <mxCell id="HSl3-Hk5BajmyqIvVRTS-214" value="&lt;div style=&quot;font-size: 25px;&quot;&gt;(market token&#39;s symbol)&lt;br&gt;&lt;/div&gt;" style="rounded=0;whiteSpace=wrap;html=1;fontFamily=Helvetica;fontSize=11;fontColor=default;gradientColor=none;fillColor=#e1d5e7;align=center;dashed=1;strokeWidth=3;strokeColor=#9673a6;" vertex="1" parent="1">
          <mxGeometry x="120" y="687.63" width="390" height="44.74" as="geometry" />
        </mxCell>
        <mxCell id="HSl3-Hk5BajmyqIvVRTS-215" value="" style="html=1;shadow=0;dashed=0;align=center;verticalAlign=middle;shape=mxgraph.arrows2.arrow;dy=0.6;dx=40;direction=east;notch=0;rounded=1;fontFamily=Helvetica;fontSize=12;fontColor=#FFFFFF;fillColor=#000000;gradientColor=#666666;strokeColor=#000000;strokeWidth=2;" vertex="1" parent="1">
          <mxGeometry x="470" y="905" width="130" height="70" as="geometry" />
        </mxCell>
        <mxCell id="HSl3-Hk5BajmyqIvVRTS-216" value="&lt;font size=&quot;1&quot; style=&quot;&quot;&gt;&lt;b style=&quot;font-size: 40px;&quot;&gt;ERC-20&lt;/b&gt;&lt;/font&gt;" style="text;html=1;strokeColor=none;fillColor=none;align=center;verticalAlign=middle;whiteSpace=wrap;rounded=0;fontSize=11;fontFamily=Helvetica;fontColor=default;" vertex="1" parent="1">
          <mxGeometry x="530" y="420.13" width="190" height="100" as="geometry" />
        </mxCell>
        <mxCell id="HSl3-Hk5BajmyqIvVRTS-217" value="&lt;font style=&quot;font-size: 25px;&quot;&gt;The &lt;b&gt;contract contains&lt;/b&gt; an &lt;b&gt;internal state&lt;/b&gt; named&lt;/font&gt;" style="text;html=1;strokeColor=none;fillColor=none;align=center;verticalAlign=middle;whiteSpace=wrap;rounded=0;fontSize=11;fontFamily=Helvetica;fontColor=default;" vertex="1" parent="1">
          <mxGeometry x="610" y="915" width="560" height="50" as="geometry" />
        </mxCell>
        <mxCell id="HSl3-Hk5BajmyqIvVRTS-218" value="&lt;font style=&quot;font-size: 25px;&quot;&gt;_state&lt;/font&gt;" style="text;html=1;strokeColor=#000000;fillColor=#000000;align=center;verticalAlign=middle;whiteSpace=wrap;rounded=1;gradientColor=#666666;strokeWidth=2;perimeterSpacing=2;shadow=0;dashed=0;fontColor=#FFFFFF;" vertex="1" parent="1">
          <mxGeometry x="1186" y="900" width="109" height="53.59" as="geometry" />
        </mxCell>
        <mxCell id="HSl3-Hk5BajmyqIvVRTS-219" value="&lt;font style=&quot;font-size: 25px;&quot;&gt;_state&lt;/font&gt;" style="text;html=1;strokeColor=#000000;fillColor=#000000;align=center;verticalAlign=middle;whiteSpace=wrap;rounded=1;gradientColor=#666666;strokeWidth=2;perimeterSpacing=2;shadow=0;dashed=0;fontColor=#FFFFFF;" vertex="1" parent="1">
          <mxGeometry x="1196" y="910" width="109" height="53.59" as="geometry" />
        </mxCell>
        <mxCell id="HSl3-Hk5BajmyqIvVRTS-220" value="&lt;font style=&quot;font-size: 25px;&quot;&gt;_state&lt;/font&gt;" style="text;html=1;strokeColor=#000000;fillColor=#000000;align=center;verticalAlign=middle;whiteSpace=wrap;rounded=1;gradientColor=#666666;strokeWidth=2;perimeterSpacing=2;shadow=0;dashed=0;fontColor=#FFFFFF;" vertex="1" parent="1">
          <mxGeometry x="1206" y="920" width="109" height="53.59" as="geometry" />
        </mxCell>
        <mxCell id="HSl3-Hk5BajmyqIvVRTS-221" style="edgeStyle=orthogonalEdgeStyle;shape=connector;rounded=0;orthogonalLoop=1;jettySize=auto;html=1;exitX=0.5;exitY=0;exitDx=0;exitDy=0;entryX=0.646;entryY=0.02;entryDx=0;entryDy=0;entryPerimeter=0;labelBackgroundColor=default;strokeColor=default;strokeWidth=3;align=center;verticalAlign=middle;fontFamily=Helvetica;fontSize=12;fontColor=#FFFFFF;endArrow=classic;" edge="1" parent="1" source="HSl3-Hk5BajmyqIvVRTS-217" target="HSl3-Hk5BajmyqIvVRTS-218">
          <mxGeometry relative="1" as="geometry" />
        </mxCell>
        <mxCell id="HSl3-Hk5BajmyqIvVRTS-223" style="edgeStyle=orthogonalEdgeStyle;shape=connector;rounded=0;orthogonalLoop=1;jettySize=auto;html=1;exitX=0.5;exitY=1;exitDx=0;exitDy=0;entryX=0.632;entryY=0.973;entryDx=0;entryDy=0;entryPerimeter=0;labelBackgroundColor=default;strokeColor=default;strokeWidth=3;align=center;verticalAlign=middle;fontFamily=Helvetica;fontSize=12;fontColor=#FFFFFF;endArrow=classic;" edge="1" parent="1" source="HSl3-Hk5BajmyqIvVRTS-217" target="HSl3-Hk5BajmyqIvVRTS-220">
          <mxGeometry relative="1" as="geometry" />
        </mxCell>
        <mxCell id="HSl3-Hk5BajmyqIvVRTS-225" style="edgeStyle=orthogonalEdgeStyle;shape=connector;rounded=0;orthogonalLoop=1;jettySize=auto;html=1;exitX=1;exitY=0.5;exitDx=0;exitDy=0;labelBackgroundColor=default;strokeColor=default;strokeWidth=3;align=center;verticalAlign=middle;fontFamily=Helvetica;fontSize=12;fontColor=#FFFFFF;endArrow=classic;" edge="1" parent="1">
          <mxGeometry relative="1" as="geometry">
            <mxPoint x="1500" y="939" as="targetPoint" />
            <mxPoint x="1330" y="939.54" as="sourcePoint" />
          </mxGeometry>
        </mxCell>
        <mxCell id="HSl3-Hk5BajmyqIvVRTS-226" value="&lt;font style=&quot;font-size: 20px;&quot;&gt;Stores&lt;/font&gt;" style="text;html=1;strokeColor=none;fillColor=none;align=center;verticalAlign=middle;whiteSpace=wrap;rounded=0;fontSize=11;fontFamily=Helvetica;fontColor=default;" vertex="1" parent="1">
          <mxGeometry x="1340" y="910" width="140" height="28.97" as="geometry" />
        </mxCell>
        <mxCell id="HSl3-Hk5BajmyqIvVRTS-230" style="edgeStyle=orthogonalEdgeStyle;shape=connector;rounded=0;orthogonalLoop=1;jettySize=auto;html=1;exitX=0.5;exitY=0;exitDx=0;exitDy=0;entryX=0.5;entryY=0;entryDx=0;entryDy=0;labelBackgroundColor=default;strokeColor=default;strokeWidth=3;align=center;verticalAlign=middle;fontFamily=Helvetica;fontSize=12;fontColor=#FFFFFF;endArrow=classic;" edge="1" parent="1" source="HSl3-Hk5BajmyqIvVRTS-227" target="HSl3-Hk5BajmyqIvVRTS-229">
          <mxGeometry relative="1" as="geometry" />
        </mxCell>
        <mxCell id="HSl3-Hk5BajmyqIvVRTS-238" style="edgeStyle=orthogonalEdgeStyle;shape=connector;rounded=0;orthogonalLoop=1;jettySize=auto;html=1;exitX=0.5;exitY=1;exitDx=0;exitDy=0;entryX=0.5;entryY=1;entryDx=0;entryDy=0;labelBackgroundColor=default;strokeColor=default;strokeWidth=3;align=center;verticalAlign=middle;fontFamily=Helvetica;fontSize=12;fontColor=#FFFFFF;endArrow=classic;" edge="1" parent="1" source="HSl3-Hk5BajmyqIvVRTS-227" target="HSl3-Hk5BajmyqIvVRTS-237">
          <mxGeometry relative="1" as="geometry" />
        </mxCell>
        <mxCell id="HSl3-Hk5BajmyqIvVRTS-227" value="&lt;font style=&quot;font-size: 25px;&quot;&gt;Crucial &lt;b&gt;information about&lt;/b&gt; the &lt;b&gt;current state of the market&lt;/b&gt;&lt;/font&gt;" style="text;html=1;strokeColor=none;fillColor=none;align=center;verticalAlign=middle;whiteSpace=wrap;rounded=0;fontSize=11;fontFamily=Helvetica;fontColor=default;" vertex="1" parent="1">
          <mxGeometry x="1510" y="907.5" width="360" height="65" as="geometry" />
        </mxCell>
        <mxCell id="HSl3-Hk5BajmyqIvVRTS-228" value="" style="shape=waypoint;sketch=0;fillStyle=solid;size=6;pointerEvents=1;points=[];fillColor=none;resizable=0;rotatable=0;perimeter=centerPerimeter;snapToPoint=1;rounded=1;shadow=0;dashed=0;strokeColor=#000000;strokeWidth=5;align=center;verticalAlign=middle;fontFamily=Helvetica;fontSize=12;fontColor=#FFFFFF;html=1;" vertex="1" parent="1">
          <mxGeometry x="1905" y="830" width="20" height="20" as="geometry" />
        </mxCell>
        <mxCell id="HSl3-Hk5BajmyqIvVRTS-229" value="&lt;font style=&quot;font-size: 25px;&quot;&gt;Market is closed&lt;/font&gt;" style="text;html=1;strokeColor=none;fillColor=none;align=center;verticalAlign=middle;whiteSpace=wrap;rounded=0;fontSize=11;fontFamily=Helvetica;fontColor=default;" vertex="1" parent="1">
          <mxGeometry x="1930" y="820.12" width="190" height="39.75" as="geometry" />
        </mxCell>
        <mxCell id="HSl3-Hk5BajmyqIvVRTS-231" value="&lt;font style=&quot;font-size: 20px;&quot;&gt; This includes whether &lt;/font&gt;" style="text;html=1;strokeColor=none;fillColor=none;align=center;verticalAlign=middle;whiteSpace=wrap;rounded=0;fontSize=11;fontFamily=Helvetica;fontColor=default;" vertex="1" parent="1">
          <mxGeometry x="1770" y="770" width="210" height="28.97" as="geometry" />
        </mxCell>
        <mxCell id="HSl3-Hk5BajmyqIvVRTS-232" value="" style="shape=waypoint;sketch=0;fillStyle=solid;size=6;pointerEvents=1;points=[];fillColor=none;resizable=0;rotatable=0;perimeter=centerPerimeter;snapToPoint=1;rounded=1;shadow=0;dashed=0;strokeColor=#000000;strokeWidth=5;align=center;verticalAlign=middle;fontFamily=Helvetica;fontSize=12;fontColor=#FFFFFF;html=1;" vertex="1" parent="1">
          <mxGeometry x="1905" y="887.5" width="20" height="20" as="geometry" />
        </mxCell>
        <mxCell id="HSl3-Hk5BajmyqIvVRTS-233" value="" style="shape=waypoint;sketch=0;fillStyle=solid;size=6;pointerEvents=1;points=[];fillColor=none;resizable=0;rotatable=0;perimeter=centerPerimeter;snapToPoint=1;rounded=1;shadow=0;dashed=0;strokeColor=#000000;strokeWidth=5;align=center;verticalAlign=middle;fontFamily=Helvetica;fontSize=12;fontColor=#FFFFFF;html=1;" vertex="1" parent="1">
          <mxGeometry x="1905" y="945" width="20" height="20" as="geometry" />
        </mxCell>
        <mxCell id="HSl3-Hk5BajmyqIvVRTS-234" value="" style="shape=waypoint;sketch=0;fillStyle=solid;size=6;pointerEvents=1;points=[];fillColor=none;resizable=0;rotatable=0;perimeter=centerPerimeter;snapToPoint=1;rounded=1;shadow=0;dashed=0;strokeColor=#000000;strokeWidth=5;align=center;verticalAlign=middle;fontFamily=Helvetica;fontSize=12;fontColor=#FFFFFF;html=1;" vertex="1" parent="1">
          <mxGeometry x="1905" y="1000" width="20" height="20" as="geometry" />
        </mxCell>
        <mxCell id="HSl3-Hk5BajmyqIvVRTS-235" value="&lt;font style=&quot;font-size: 25px;&quot;&gt;Maximum total supply&lt;/font&gt;" style="text;html=1;strokeColor=none;fillColor=none;align=center;verticalAlign=middle;whiteSpace=wrap;rounded=0;fontSize=11;fontFamily=Helvetica;fontColor=default;" vertex="1" parent="1">
          <mxGeometry x="1930" y="877.63" width="260" height="39.75" as="geometry" />
        </mxCell>
        <mxCell id="HSl3-Hk5BajmyqIvVRTS-236" value="&lt;font style=&quot;font-size: 25px;&quot;&gt;Accumulated fees and interest&lt;/font&gt;" style="text;html=1;strokeColor=none;fillColor=none;align=center;verticalAlign=middle;whiteSpace=wrap;rounded=0;fontSize=11;fontFamily=Helvetica;fontColor=default;" vertex="1" parent="1">
          <mxGeometry x="1938" y="935.13" width="342" height="39.75" as="geometry" />
        </mxCell>
        <mxCell id="HSl3-Hk5BajmyqIvVRTS-237" value="&lt;font style=&quot;font-size: 25px;&quot;&gt;Among other details&lt;/font&gt;" style="text;html=1;strokeColor=none;fillColor=none;align=center;verticalAlign=middle;whiteSpace=wrap;rounded=0;fontSize=11;fontFamily=Helvetica;fontColor=default;" vertex="1" parent="1">
          <mxGeometry x="1940" y="990.12" width="240" height="39.75" as="geometry" />
        </mxCell>
        <mxCell id="HSl3-Hk5BajmyqIvVRTS-239" value="" style="html=1;shadow=0;dashed=0;align=center;verticalAlign=middle;shape=mxgraph.arrows2.arrow;dy=0.6;dx=40;direction=south;notch=0;rounded=1;fontFamily=Helvetica;fontSize=12;fontColor=#FFFFFF;fillColor=#000000;gradientColor=#666666;strokeColor=#000000;strokeWidth=2;" vertex="1" parent="1">
          <mxGeometry x="222.5" y="1000" width="70" height="130" as="geometry" />
        </mxCell>
        <mxCell id="HSl3-Hk5BajmyqIvVRTS-241" value="&lt;div style=&quot;&quot;&gt;&lt;div style=&quot;line-height: 19px;&quot;&gt;&lt;img alt=&quot;Technology Icon, PNG, 1000x733px, Technology, Application Software, Area,  Brand, Computer Download Free&quot; src=&quot;https://encrypted-tbn0.gstatic.com/images?q=tbn:ANd9GcQ7jMFIGJGuSn8LQ0tXYUP5xuXMW3ePmPHpFrxHmJwskCJAXC1GuCG_suLVqTeA_7HRu04&amp;amp;usqp=CAU&quot;&gt;&lt;br&gt;&lt;/div&gt;&lt;/div&gt;" style="text;html=1;strokeColor=none;fillColor=none;align=center;verticalAlign=middle;whiteSpace=wrap;rounded=0;" vertex="1" parent="1">
          <mxGeometry x="460" y="985" width="270" height="180" as="geometry" />
        </mxCell>
        <mxCell id="HSl3-Hk5BajmyqIvVRTS-242" value="&lt;font style=&quot;font-size: 30px;&quot;&gt;Market State&lt;/font&gt;" style="text;html=1;strokeColor=#A9C4EB;fillColor=#000000;align=center;verticalAlign=middle;whiteSpace=wrap;rounded=1;gradientColor=#666666;strokeWidth=3;perimeterSpacing=2;shadow=0;dashed=0;fontColor=#FFFFFF;" vertex="1" parent="1">
          <mxGeometry x="75" y="1150" width="365" height="80" as="geometry" />
        </mxCell>
        <mxCell id="HSl3-Hk5BajmyqIvVRTS-243" value="" style="html=1;shadow=0;dashed=0;align=center;verticalAlign=middle;shape=mxgraph.arrows2.arrow;dy=0.6;dx=40;direction=east;notch=0;rounded=1;fontFamily=Helvetica;fontSize=12;fontColor=#FFFFFF;fillColor=#000000;gradientColor=#666666;strokeColor=#000000;strokeWidth=2;" vertex="1" parent="1">
          <mxGeometry x="470" y="1155" width="130" height="70" as="geometry" />
        </mxCell>
        <mxCell id="HSl3-Hk5BajmyqIvVRTS-245" style="edgeStyle=orthogonalEdgeStyle;shape=connector;rounded=0;orthogonalLoop=1;jettySize=auto;html=1;exitX=1;exitY=0.5;exitDx=0;exitDy=0;labelBackgroundColor=default;strokeColor=default;strokeWidth=3;align=center;verticalAlign=middle;fontFamily=Helvetica;fontSize=12;fontColor=#FFFFFF;endArrow=classic;" edge="1" parent="1" source="HSl3-Hk5BajmyqIvVRTS-244">
          <mxGeometry relative="1" as="geometry">
            <mxPoint x="1310" y="1190" as="targetPoint" />
          </mxGeometry>
        </mxCell>
        <mxCell id="HSl3-Hk5BajmyqIvVRTS-244" value="&lt;font style=&quot;font-size: 25px;&quot;&gt;The &lt;b&gt;constructor&lt;/b&gt; of the contract is &lt;b&gt;executed once upon deployment&lt;/b&gt;&lt;/font&gt;" style="text;html=1;strokeColor=none;fillColor=none;align=center;verticalAlign=middle;whiteSpace=wrap;rounded=0;fontSize=11;fontFamily=Helvetica;fontColor=default;" vertex="1" parent="1">
          <mxGeometry x="610" y="1165" width="420" height="50" as="geometry" />
        </mxCell>
        <mxCell id="HSl3-Hk5BajmyqIvVRTS-246" value="&lt;font style=&quot;font-size: 20px;&quot;&gt;Sets the initial parameters of the market&lt;/font&gt;" style="text;html=1;strokeColor=none;fillColor=none;align=center;verticalAlign=middle;whiteSpace=wrap;rounded=0;fontSize=11;fontFamily=Helvetica;fontColor=default;" vertex="1" parent="1">
          <mxGeometry x="1021" y="1130" width="284" height="55" as="geometry" />
        </mxCell>
        <mxCell id="HSl3-Hk5BajmyqIvVRTS-250" style="edgeStyle=orthogonalEdgeStyle;shape=connector;rounded=0;orthogonalLoop=1;jettySize=auto;html=1;exitX=0.5;exitY=0;exitDx=0;exitDy=0;entryX=0.5;entryY=0;entryDx=0;entryDy=0;labelBackgroundColor=default;strokeColor=default;strokeWidth=3;align=center;verticalAlign=middle;fontFamily=Helvetica;fontSize=12;fontColor=#FFFFFF;endArrow=classic;" edge="1" parent="1" source="HSl3-Hk5BajmyqIvVRTS-248" target="HSl3-Hk5BajmyqIvVRTS-249">
          <mxGeometry relative="1" as="geometry" />
        </mxCell>
        <mxCell id="HSl3-Hk5BajmyqIvVRTS-251" style="edgeStyle=orthogonalEdgeStyle;shape=connector;rounded=0;orthogonalLoop=1;jettySize=auto;html=1;exitX=0.5;exitY=1;exitDx=0;exitDy=0;entryX=0.5;entryY=1;entryDx=0;entryDy=0;labelBackgroundColor=default;strokeColor=default;strokeWidth=3;align=center;verticalAlign=middle;fontFamily=Helvetica;fontSize=12;fontColor=#FFFFFF;endArrow=classic;" edge="1" parent="1" source="HSl3-Hk5BajmyqIvVRTS-248" target="HSl3-Hk5BajmyqIvVRTS-249">
          <mxGeometry relative="1" as="geometry" />
        </mxCell>
        <mxCell id="HSl3-Hk5BajmyqIvVRTS-248" value="&lt;font style=&quot;font-size: 25px;&quot;&gt;It &lt;b&gt;uses the values provided&lt;/b&gt; by the &lt;b&gt;deploying contract &lt;/b&gt;&lt;/font&gt;" style="text;html=1;strokeColor=none;fillColor=none;align=center;verticalAlign=middle;whiteSpace=wrap;rounded=0;fontSize=11;fontFamily=Helvetica;fontColor=default;" vertex="1" parent="1">
          <mxGeometry x="1320" y="1157.5" width="360" height="65" as="geometry" />
        </mxCell>
        <mxCell id="HSl3-Hk5BajmyqIvVRTS-249" value="&lt;div style=&quot;font-size: 25px;&quot;&gt; (typically, the market controller contract)&lt;br&gt;&lt;/div&gt;" style="rounded=0;whiteSpace=wrap;html=1;fontFamily=Helvetica;fontSize=11;fontColor=default;gradientColor=none;fillColor=#e1d5e7;align=center;dashed=1;strokeWidth=3;strokeColor=#9673a6;" vertex="1" parent="1">
          <mxGeometry x="1730" y="1167.63" width="610" height="44.74" as="geometry" />
        </mxCell>
        <mxCell id="HSl3-Hk5BajmyqIvVRTS-252" value="" style="html=1;shadow=0;dashed=0;align=center;verticalAlign=middle;shape=mxgraph.arrows2.arrow;dy=0.6;dx=40;direction=south;notch=0;rounded=1;fontFamily=Helvetica;fontSize=12;fontColor=#FFFFFF;fillColor=#000000;gradientColor=#666666;strokeColor=#000000;strokeWidth=2;" vertex="1" parent="1">
          <mxGeometry x="222.5" y="1250" width="70" height="130" as="geometry" />
        </mxCell>
        <mxCell id="HSl3-Hk5BajmyqIvVRTS-253" value="&lt;font style=&quot;font-size: 30px;&quot;&gt;Modifiers&lt;/font&gt;" style="text;html=1;strokeColor=#A9C4EB;fillColor=#000000;align=center;verticalAlign=middle;whiteSpace=wrap;rounded=1;gradientColor=#666666;strokeWidth=3;perimeterSpacing=2;shadow=0;dashed=0;fontColor=#FFFFFF;" vertex="1" parent="1">
          <mxGeometry x="75" y="1400" width="365" height="80" as="geometry" />
        </mxCell>
        <mxCell id="HSl3-Hk5BajmyqIvVRTS-254" value="" style="html=1;shadow=0;dashed=0;align=center;verticalAlign=middle;shape=mxgraph.arrows2.arrow;dy=0.6;dx=40;direction=east;notch=0;rounded=1;fontFamily=Helvetica;fontSize=12;fontColor=#FFFFFF;fillColor=#000000;gradientColor=#666666;strokeColor=#000000;strokeWidth=2;" vertex="1" parent="1">
          <mxGeometry x="470" y="1405" width="130" height="70" as="geometry" />
        </mxCell>
        <mxCell id="HSl3-Hk5BajmyqIvVRTS-255" value="&lt;font style=&quot;font-size: 25px;&quot;&gt;&lt;b&gt;The contract defines two modifiers&lt;/b&gt;&lt;/font&gt;" style="text;html=1;strokeColor=none;fillColor=none;align=center;verticalAlign=middle;whiteSpace=wrap;rounded=0;fontSize=11;fontFamily=Helvetica;fontColor=default;" vertex="1" parent="1">
          <mxGeometry x="607" y="1415" width="420" height="50" as="geometry" />
        </mxCell>
        <mxCell id="HSl3-Hk5BajmyqIvVRTS-256" value="&lt;font style=&quot;font-size: 25px;&quot;&gt;onlyBorrower&lt;/font&gt;" style="text;html=1;strokeColor=#000000;fillColor=#000000;align=center;verticalAlign=middle;whiteSpace=wrap;rounded=1;gradientColor=#666666;strokeWidth=2;perimeterSpacing=2;shadow=0;dashed=0;fontColor=#FFFFFF;" vertex="1" parent="1">
          <mxGeometry x="1040" y="1310" width="180" height="58.59" as="geometry" />
        </mxCell>
        <mxCell id="HSl3-Hk5BajmyqIvVRTS-257" value="&lt;font style=&quot;font-size: 25px;&quot;&gt;onlyController&lt;/font&gt;" style="text;html=1;strokeColor=#000000;fillColor=#000000;align=center;verticalAlign=middle;whiteSpace=wrap;rounded=1;gradientColor=#666666;strokeWidth=2;perimeterSpacing=2;shadow=0;dashed=0;fontColor=#FFFFFF;" vertex="1" parent="1">
          <mxGeometry x="1040" y="1450" width="180" height="58.59" as="geometry" />
        </mxCell>
        <mxCell id="HSl3-Hk5BajmyqIvVRTS-259" style="edgeStyle=orthogonalEdgeStyle;shape=connector;rounded=0;orthogonalLoop=1;jettySize=auto;html=1;exitX=0.5;exitY=0;exitDx=0;exitDy=0;entryX=0.844;entryY=0.048;entryDx=0;entryDy=0;entryPerimeter=0;labelBackgroundColor=default;strokeColor=default;strokeWidth=3;align=center;verticalAlign=middle;fontFamily=Helvetica;fontSize=12;fontColor=#FFFFFF;endArrow=classic;" edge="1" parent="1" source="HSl3-Hk5BajmyqIvVRTS-255" target="HSl3-Hk5BajmyqIvVRTS-256">
          <mxGeometry relative="1" as="geometry" />
        </mxCell>
        <mxCell id="HSl3-Hk5BajmyqIvVRTS-261" value="&lt;font style=&quot;font-size: 25px;&quot;&gt;onlyBorrower&lt;/font&gt;" style="text;html=1;strokeColor=#000000;fillColor=#000000;align=center;verticalAlign=middle;whiteSpace=wrap;rounded=1;gradientColor=#666666;strokeWidth=2;perimeterSpacing=2;shadow=0;dashed=0;fontColor=#FFFFFF;" vertex="1" parent="1">
          <mxGeometry x="1050" y="1320" width="180" height="58.59" as="geometry" />
        </mxCell>
        <mxCell id="HSl3-Hk5BajmyqIvVRTS-268" style="edgeStyle=orthogonalEdgeStyle;shape=connector;rounded=0;orthogonalLoop=1;jettySize=auto;html=1;exitX=1;exitY=0.5;exitDx=0;exitDy=0;entryX=0.5;entryY=0;entryDx=0;entryDy=0;labelBackgroundColor=default;strokeColor=default;strokeWidth=3;align=center;verticalAlign=middle;fontFamily=Helvetica;fontSize=12;fontColor=#FFFFFF;endArrow=classic;" edge="1" parent="1" source="HSl3-Hk5BajmyqIvVRTS-262" target="HSl3-Hk5BajmyqIvVRTS-267">
          <mxGeometry relative="1" as="geometry" />
        </mxCell>
        <mxCell id="HSl3-Hk5BajmyqIvVRTS-262" value="&lt;font style=&quot;font-size: 25px;&quot;&gt;onlyBorrower&lt;/font&gt;" style="text;html=1;strokeColor=#000000;fillColor=#000000;align=center;verticalAlign=middle;whiteSpace=wrap;rounded=1;gradientColor=#666666;strokeWidth=2;perimeterSpacing=2;shadow=0;dashed=0;fontColor=#FFFFFF;" vertex="1" parent="1">
          <mxGeometry x="1060" y="1330" width="180" height="58.59" as="geometry" />
        </mxCell>
        <mxCell id="HSl3-Hk5BajmyqIvVRTS-263" value="&lt;font style=&quot;font-size: 25px;&quot;&gt;onlyController&lt;/font&gt;" style="text;html=1;strokeColor=#000000;fillColor=#000000;align=center;verticalAlign=middle;whiteSpace=wrap;rounded=1;gradientColor=#666666;strokeWidth=2;perimeterSpacing=2;shadow=0;dashed=0;fontColor=#FFFFFF;" vertex="1" parent="1">
          <mxGeometry x="1050" y="1460" width="180" height="58.59" as="geometry" />
        </mxCell>
        <mxCell id="HSl3-Hk5BajmyqIvVRTS-269" style="edgeStyle=orthogonalEdgeStyle;shape=connector;rounded=0;orthogonalLoop=1;jettySize=auto;html=1;exitX=1;exitY=0.5;exitDx=0;exitDy=0;entryX=0.5;entryY=1;entryDx=0;entryDy=0;labelBackgroundColor=default;strokeColor=default;strokeWidth=3;align=center;verticalAlign=middle;fontFamily=Helvetica;fontSize=12;fontColor=#FFFFFF;endArrow=classic;" edge="1" parent="1" source="HSl3-Hk5BajmyqIvVRTS-264" target="HSl3-Hk5BajmyqIvVRTS-267">
          <mxGeometry relative="1" as="geometry" />
        </mxCell>
        <mxCell id="HSl3-Hk5BajmyqIvVRTS-264" value="&lt;font style=&quot;font-size: 25px;&quot;&gt;onlyController&lt;/font&gt;" style="text;html=1;strokeColor=#000000;fillColor=#000000;align=center;verticalAlign=middle;whiteSpace=wrap;rounded=1;gradientColor=#666666;strokeWidth=2;perimeterSpacing=2;shadow=0;dashed=0;fontColor=#FFFFFF;" vertex="1" parent="1">
          <mxGeometry x="1060" y="1470" width="180" height="58.59" as="geometry" />
        </mxCell>
        <mxCell id="HSl3-Hk5BajmyqIvVRTS-265" style="edgeStyle=orthogonalEdgeStyle;shape=connector;rounded=0;orthogonalLoop=1;jettySize=auto;html=1;exitX=0.5;exitY=1;exitDx=0;exitDy=0;entryX=0.909;entryY=0.957;entryDx=0;entryDy=0;entryPerimeter=0;labelBackgroundColor=default;strokeColor=default;strokeWidth=3;align=center;verticalAlign=middle;fontFamily=Helvetica;fontSize=12;fontColor=#FFFFFF;endArrow=classic;" edge="1" parent="1" source="HSl3-Hk5BajmyqIvVRTS-255" target="HSl3-Hk5BajmyqIvVRTS-264">
          <mxGeometry relative="1" as="geometry" />
        </mxCell>
        <mxCell id="HSl3-Hk5BajmyqIvVRTS-267" value="&lt;div style=&quot;font-size: 25px;&quot;&gt;These &lt;b&gt;modifiers&lt;/b&gt; allow certain functions to be executed only by the &lt;b&gt;borrower&lt;/b&gt; or the &lt;b&gt;market controller&lt;/b&gt;, respectively&lt;br&gt;&lt;/div&gt;" style="rounded=0;whiteSpace=wrap;html=1;fontFamily=Helvetica;fontSize=11;fontColor=default;gradientColor=none;fillColor=#e1d5e7;align=center;dashed=1;strokeWidth=3;strokeColor=#9673a6;" vertex="1" parent="1">
          <mxGeometry x="1500" y="1368.59" width="530" height="125" as="geometry" />
        </mxCell>
        <mxCell id="HSl3-Hk5BajmyqIvVRTS-270" value="&lt;div style=&quot;&quot;&gt;&lt;div style=&quot;line-height: 19px;&quot;&gt;&lt;img alt=&quot;security-icon | CSR Digital&quot; src=&quot;https://encrypted-tbn0.gstatic.com/images?q=tbn:ANd9GcQCx0KRuzlGpJojOW_m09qBsuCNsjW19382TA&amp;amp;usqp=CAU&quot;&gt;&lt;br&gt;&lt;/div&gt;&lt;/div&gt;" style="text;html=1;strokeColor=none;fillColor=none;align=center;verticalAlign=middle;whiteSpace=wrap;rounded=0;" vertex="1" parent="1">
          <mxGeometry x="2068" y="1306.6399999999999" width="250" height="248.91" as="geometry" />
        </mxCell>
        <mxCell id="HSl3-Hk5BajmyqIvVRTS-271" value="" style="html=1;shadow=0;dashed=0;align=center;verticalAlign=middle;shape=mxgraph.arrows2.arrow;dy=0.6;dx=40;direction=south;notch=0;rounded=1;fontFamily=Helvetica;fontSize=12;fontColor=#FFFFFF;fillColor=#000000;gradientColor=#666666;strokeColor=#000000;strokeWidth=2;" vertex="1" parent="1">
          <mxGeometry x="222.5" y="1500" width="70" height="130" as="geometry" />
        </mxCell>
        <mxCell id="HSl3-Hk5BajmyqIvVRTS-272" value="&lt;font style=&quot;font-size: 30px;&quot;&gt;Query Functions&lt;/font&gt;" style="text;html=1;strokeColor=#A9C4EB;fillColor=#000000;align=center;verticalAlign=middle;whiteSpace=wrap;rounded=1;gradientColor=#666666;strokeWidth=3;perimeterSpacing=2;shadow=0;dashed=0;fontColor=#FFFFFF;" vertex="1" parent="1">
          <mxGeometry x="75" y="1650" width="365" height="80" as="geometry" />
        </mxCell>
        <mxCell id="HSl3-Hk5BajmyqIvVRTS-273" value="" style="html=1;shadow=0;dashed=0;align=center;verticalAlign=middle;shape=mxgraph.arrows2.arrow;dy=0.6;dx=40;direction=east;notch=0;rounded=1;fontFamily=Helvetica;fontSize=12;fontColor=#FFFFFF;fillColor=#000000;gradientColor=#666666;strokeColor=#000000;strokeWidth=2;" vertex="1" parent="1">
          <mxGeometry x="470" y="1655" width="130" height="70" as="geometry" />
        </mxCell>
        <mxCell id="HSl3-Hk5BajmyqIvVRTS-275" style="edgeStyle=orthogonalEdgeStyle;shape=connector;rounded=0;orthogonalLoop=1;jettySize=auto;html=1;exitX=1;exitY=0.5;exitDx=0;exitDy=0;labelBackgroundColor=default;strokeColor=default;strokeWidth=3;align=center;verticalAlign=middle;fontFamily=Helvetica;fontSize=12;fontColor=#FFFFFF;endArrow=classic;" edge="1" parent="1" source="HSl3-Hk5BajmyqIvVRTS-274">
          <mxGeometry relative="1" as="geometry">
            <mxPoint x="1540" y="1690.4615384615386" as="targetPoint" />
          </mxGeometry>
        </mxCell>
        <mxCell id="HSl3-Hk5BajmyqIvVRTS-274" value="&lt;font style=&quot;font-size: 25px;&quot;&gt;The &lt;b&gt;contract provides&lt;/b&gt; a &lt;b&gt;set of public functions&lt;/b&gt; that &lt;b&gt;allow users&lt;/b&gt; to retrieve information about the &lt;b&gt;market&#39;s state&lt;/b&gt;&lt;/font&gt;" style="text;html=1;strokeColor=none;fillColor=none;align=center;verticalAlign=middle;whiteSpace=wrap;rounded=0;fontSize=11;fontFamily=Helvetica;fontColor=default;" vertex="1" parent="1">
          <mxGeometry x="610" y="1657.5" width="690" height="65" as="geometry" />
        </mxCell>
        <mxCell id="HSl3-Hk5BajmyqIvVRTS-276" value="&lt;font style=&quot;font-size: 20px;&quot;&gt;Such as&lt;/font&gt;" style="text;html=1;strokeColor=none;fillColor=none;align=center;verticalAlign=middle;whiteSpace=wrap;rounded=0;fontSize=11;fontFamily=Helvetica;fontColor=default;" vertex="1" parent="1">
          <mxGeometry x="1340" y="1655" width="140" height="28.97" as="geometry" />
        </mxCell>
        <mxCell id="HSl3-Hk5BajmyqIvVRTS-277" value="" style="shape=waypoint;sketch=0;fillStyle=solid;size=6;pointerEvents=1;points=[];fillColor=none;resizable=0;rotatable=0;perimeter=centerPerimeter;snapToPoint=1;rounded=1;shadow=0;dashed=0;strokeColor=#000000;strokeWidth=5;align=center;verticalAlign=middle;fontFamily=Helvetica;fontSize=12;fontColor=#FFFFFF;html=1;" vertex="1" parent="1">
          <mxGeometry x="1590" y="1580" width="20" height="20" as="geometry" />
        </mxCell>
        <mxCell id="HSl3-Hk5BajmyqIvVRTS-278" value="" style="shape=waypoint;sketch=0;fillStyle=solid;size=6;pointerEvents=1;points=[];fillColor=none;resizable=0;rotatable=0;perimeter=centerPerimeter;snapToPoint=1;rounded=1;shadow=0;dashed=0;strokeColor=#000000;strokeWidth=5;align=center;verticalAlign=middle;fontFamily=Helvetica;fontSize=12;fontColor=#FFFFFF;html=1;" vertex="1" parent="1">
          <mxGeometry x="1590" y="1637.5" width="20" height="20" as="geometry" />
        </mxCell>
        <mxCell id="HSl3-Hk5BajmyqIvVRTS-279" value="" style="shape=waypoint;sketch=0;fillStyle=solid;size=6;pointerEvents=1;points=[];fillColor=none;resizable=0;rotatable=0;perimeter=centerPerimeter;snapToPoint=1;rounded=1;shadow=0;dashed=0;strokeColor=#000000;strokeWidth=5;align=center;verticalAlign=middle;fontFamily=Helvetica;fontSize=12;fontColor=#FFFFFF;html=1;" vertex="1" parent="1">
          <mxGeometry x="1590" y="1700" width="20" height="20" as="geometry" />
        </mxCell>
        <mxCell id="HSl3-Hk5BajmyqIvVRTS-280" value="" style="shape=waypoint;sketch=0;fillStyle=solid;size=6;pointerEvents=1;points=[];fillColor=none;resizable=0;rotatable=0;perimeter=centerPerimeter;snapToPoint=1;rounded=1;shadow=0;dashed=0;strokeColor=#000000;strokeWidth=5;align=center;verticalAlign=middle;fontFamily=Helvetica;fontSize=12;fontColor=#FFFFFF;html=1;" vertex="1" parent="1">
          <mxGeometry x="1590" y="1760" width="20" height="20" as="geometry" />
        </mxCell>
        <mxCell id="HSl3-Hk5BajmyqIvVRTS-281" value="" style="shape=curlyBracket;whiteSpace=wrap;html=1;rounded=1;labelPosition=left;verticalLabelPosition=middle;align=right;verticalAlign=middle;shadow=0;dashed=0;strokeColor=#000000;strokeWidth=2;fontFamily=Helvetica;fontSize=12;fontColor=#FFFFFF;fillColor=#000000;gradientColor=#666666;" vertex="1" parent="1">
          <mxGeometry x="1550" y="1555.55" width="20" height="234.45" as="geometry" />
        </mxCell>
        <mxCell id="HSl3-Hk5BajmyqIvVRTS-282" value="&lt;font style=&quot;font-size: 25px;&quot;&gt;Required &lt;b&gt;liquidity&lt;/b&gt; to avoid &lt;b&gt;delinquency&lt;/b&gt;&lt;/font&gt;" style="text;html=1;strokeColor=none;fillColor=none;align=center;verticalAlign=middle;whiteSpace=wrap;rounded=0;fontSize=11;fontFamily=Helvetica;fontColor=default;" vertex="1" parent="1">
          <mxGeometry x="1620" y="1570.13" width="460" height="39.75" as="geometry" />
        </mxCell>
        <mxCell id="HSl3-Hk5BajmyqIvVRTS-283" value="&lt;font style=&quot;font-size: 25px;&quot;&gt;&lt;b&gt;Amount of assets&lt;/b&gt; that can be &lt;b&gt;borrowed&lt;/b&gt;&lt;/font&gt;" style="text;html=1;strokeColor=none;fillColor=none;align=center;verticalAlign=middle;whiteSpace=wrap;rounded=0;fontSize=11;fontFamily=Helvetica;fontColor=default;" vertex="1" parent="1">
          <mxGeometry x="1620" y="1627.62" width="470" height="39.75" as="geometry" />
        </mxCell>
        <mxCell id="HSl3-Hk5BajmyqIvVRTS-284" value="&lt;font style=&quot;font-size: 25px;&quot;&gt;&lt;b&gt;Accumulated protocol fees&lt;/b&gt;&lt;/font&gt;" style="text;html=1;strokeColor=none;fillColor=none;align=center;verticalAlign=middle;whiteSpace=wrap;rounded=0;fontSize=11;fontFamily=Helvetica;fontColor=default;" vertex="1" parent="1">
          <mxGeometry x="1620" y="1690.12" width="340" height="39.75" as="geometry" />
        </mxCell>
        <mxCell id="HSl3-Hk5BajmyqIvVRTS-285" value="&lt;font style=&quot;font-size: 25px;&quot;&gt;&lt;b&gt;Current scale&lt;/b&gt;&lt;/font&gt;" style="text;html=1;strokeColor=none;fillColor=none;align=center;verticalAlign=middle;whiteSpace=wrap;rounded=0;fontSize=11;fontFamily=Helvetica;fontColor=default;" vertex="1" parent="1">
          <mxGeometry x="1620" y="1750.12" width="180" height="39.75" as="geometry" />
        </mxCell>
        <mxCell id="HSl3-Hk5BajmyqIvVRTS-286" value="&lt;div style=&quot;font-size: 25px;&quot;&gt;&lt;b&gt;And other details......&lt;/b&gt;&lt;br&gt;&lt;/div&gt;" style="rounded=0;whiteSpace=wrap;html=1;fontFamily=Helvetica;fontSize=11;fontColor=default;gradientColor=none;fillColor=#e1d5e7;align=center;dashed=1;strokeWidth=3;strokeColor=#9673a6;" vertex="1" parent="1">
          <mxGeometry x="1810" y="1742.5" width="295" height="55" as="geometry" />
        </mxCell>
        <mxCell id="HSl3-Hk5BajmyqIvVRTS-287" value="" style="html=1;shadow=0;dashed=0;align=center;verticalAlign=middle;shape=mxgraph.arrows2.arrow;dy=0.6;dx=40;direction=south;notch=0;rounded=1;fontFamily=Helvetica;fontSize=12;fontColor=#FFFFFF;fillColor=#000000;gradientColor=#666666;strokeColor=#000000;strokeWidth=2;" vertex="1" parent="1">
          <mxGeometry x="222.5" y="1742.5" width="70" height="130" as="geometry" />
        </mxCell>
        <mxCell id="HSl3-Hk5BajmyqIvVRTS-288" value="&lt;font style=&quot;font-size: 30px;&quot;&gt;Handling Internal State&lt;/font&gt;" style="text;html=1;strokeColor=#A9C4EB;fillColor=#000000;align=center;verticalAlign=middle;whiteSpace=wrap;rounded=1;gradientColor=#666666;strokeWidth=3;perimeterSpacing=2;shadow=0;dashed=0;fontColor=#FFFFFF;" vertex="1" parent="1">
          <mxGeometry x="75" y="1890" width="365" height="80" as="geometry" />
        </mxCell>
        <mxCell id="HSl3-Hk5BajmyqIvVRTS-289" value="" style="html=1;shadow=0;dashed=0;align=center;verticalAlign=middle;shape=mxgraph.arrows2.arrow;dy=0.6;dx=40;direction=east;notch=0;rounded=1;fontFamily=Helvetica;fontSize=12;fontColor=#FFFFFF;fillColor=#000000;gradientColor=#666666;strokeColor=#000000;strokeWidth=2;" vertex="1" parent="1">
          <mxGeometry x="470" y="1895" width="130" height="70" as="geometry" />
        </mxCell>
        <mxCell id="HSl3-Hk5BajmyqIvVRTS-291" style="edgeStyle=orthogonalEdgeStyle;shape=connector;rounded=0;orthogonalLoop=1;jettySize=auto;html=1;exitX=1;exitY=0.5;exitDx=0;exitDy=0;labelBackgroundColor=default;strokeColor=default;strokeWidth=3;align=center;verticalAlign=middle;fontFamily=Helvetica;fontSize=12;fontColor=#FFFFFF;endArrow=classic;" edge="1" parent="1" source="HSl3-Hk5BajmyqIvVRTS-290">
          <mxGeometry relative="1" as="geometry">
            <mxPoint x="1440" y="1930.4615384615386" as="targetPoint" />
          </mxGeometry>
        </mxCell>
        <mxCell id="HSl3-Hk5BajmyqIvVRTS-290" value="&lt;font style=&quot;font-size: 25px;&quot;&gt;The &lt;b&gt;contract includes&lt;/b&gt; &lt;b&gt;internal functions&lt;/b&gt; responsible for &lt;b&gt;updating&lt;/b&gt; and &lt;b&gt;writing&lt;/b&gt; to the &lt;b&gt;market&#39;s state&lt;/b&gt;&lt;/font&gt;" style="text;html=1;strokeColor=none;fillColor=none;align=center;verticalAlign=middle;whiteSpace=wrap;rounded=0;fontSize=11;fontFamily=Helvetica;fontColor=default;" vertex="1" parent="1">
          <mxGeometry x="606" y="1890" width="635" height="80" as="geometry" />
        </mxCell>
        <mxCell id="HSl3-Hk5BajmyqIvVRTS-297" style="edgeStyle=orthogonalEdgeStyle;shape=connector;rounded=0;orthogonalLoop=1;jettySize=auto;html=1;exitX=0.5;exitY=0;exitDx=0;exitDy=0;entryX=0.5;entryY=0;entryDx=0;entryDy=0;labelBackgroundColor=default;strokeColor=default;strokeWidth=3;align=center;verticalAlign=middle;fontFamily=Helvetica;fontSize=12;fontColor=#FFFFFF;endArrow=classic;" edge="1" parent="1" source="HSl3-Hk5BajmyqIvVRTS-292" target="HSl3-Hk5BajmyqIvVRTS-296">
          <mxGeometry relative="1" as="geometry" />
        </mxCell>
        <mxCell id="HSl3-Hk5BajmyqIvVRTS-300" style="edgeStyle=orthogonalEdgeStyle;shape=connector;rounded=0;orthogonalLoop=1;jettySize=auto;html=1;exitX=0.5;exitY=1;exitDx=0;exitDy=0;entryX=0.5;entryY=1;entryDx=0;entryDy=0;labelBackgroundColor=default;strokeColor=default;strokeWidth=3;align=center;verticalAlign=middle;fontFamily=Helvetica;fontSize=12;fontColor=#FFFFFF;endArrow=classic;" edge="1" parent="1" source="HSl3-Hk5BajmyqIvVRTS-292" target="HSl3-Hk5BajmyqIvVRTS-299">
          <mxGeometry relative="1" as="geometry" />
        </mxCell>
        <mxCell id="HSl3-Hk5BajmyqIvVRTS-292" value="&lt;font style=&quot;font-size: 20px;&quot;&gt;These functions are used to&lt;/font&gt;" style="text;html=1;strokeColor=none;fillColor=none;align=center;verticalAlign=middle;whiteSpace=wrap;rounded=0;fontSize=11;fontFamily=Helvetica;fontColor=default;" vertex="1" parent="1">
          <mxGeometry x="1250" y="1880" width="160" height="37.5" as="geometry" />
        </mxCell>
        <mxCell id="HSl3-Hk5BajmyqIvVRTS-293" value="" style="shape=waypoint;sketch=0;fillStyle=solid;size=6;pointerEvents=1;points=[];fillColor=none;resizable=0;rotatable=0;perimeter=centerPerimeter;snapToPoint=1;rounded=1;shadow=0;dashed=0;strokeColor=#000000;strokeWidth=5;align=center;verticalAlign=middle;fontFamily=Helvetica;fontSize=12;fontColor=#FFFFFF;html=1;" vertex="1" parent="1">
          <mxGeometry x="1500" y="1860" width="20" height="20" as="geometry" />
        </mxCell>
        <mxCell id="HSl3-Hk5BajmyqIvVRTS-294" value="" style="shape=waypoint;sketch=0;fillStyle=solid;size=6;pointerEvents=1;points=[];fillColor=none;resizable=0;rotatable=0;perimeter=centerPerimeter;snapToPoint=1;rounded=1;shadow=0;dashed=0;strokeColor=#000000;strokeWidth=5;align=center;verticalAlign=middle;fontFamily=Helvetica;fontSize=12;fontColor=#FFFFFF;html=1;" vertex="1" parent="1">
          <mxGeometry x="1500" y="1920" width="20" height="20" as="geometry" />
        </mxCell>
        <mxCell id="HSl3-Hk5BajmyqIvVRTS-295" value="" style="shape=waypoint;sketch=0;fillStyle=solid;size=6;pointerEvents=1;points=[];fillColor=none;resizable=0;rotatable=0;perimeter=centerPerimeter;snapToPoint=1;rounded=1;shadow=0;dashed=0;strokeColor=#000000;strokeWidth=5;align=center;verticalAlign=middle;fontFamily=Helvetica;fontSize=12;fontColor=#FFFFFF;html=1;" vertex="1" parent="1">
          <mxGeometry x="1500" y="1980" width="20" height="20" as="geometry" />
        </mxCell>
        <mxCell id="HSl3-Hk5BajmyqIvVRTS-296" value="&lt;font style=&quot;font-size: 25px;&quot;&gt;Apply interest&lt;/font&gt;" style="text;html=1;strokeColor=none;fillColor=none;align=center;verticalAlign=middle;whiteSpace=wrap;rounded=0;fontSize=11;fontFamily=Helvetica;fontColor=default;" vertex="1" parent="1">
          <mxGeometry x="1530" y="1850.12" width="180" height="39.75" as="geometry" />
        </mxCell>
        <mxCell id="HSl3-Hk5BajmyqIvVRTS-298" value="&lt;font style=&quot;font-size: 25px;&quot;&gt;Process expired withdrawals&lt;/font&gt;" style="text;html=1;strokeColor=none;fillColor=none;align=center;verticalAlign=middle;whiteSpace=wrap;rounded=0;fontSize=11;fontFamily=Helvetica;fontColor=default;" vertex="1" parent="1">
          <mxGeometry x="1530" y="1910.12" width="340" height="39.88" as="geometry" />
        </mxCell>
        <mxCell id="HSl3-Hk5BajmyqIvVRTS-299" value="&lt;font style=&quot;font-size: 25px;&quot;&gt;Manage market state data&lt;/font&gt;" style="text;html=1;strokeColor=none;fillColor=none;align=center;verticalAlign=middle;whiteSpace=wrap;rounded=0;fontSize=11;fontFamily=Helvetica;fontColor=default;" vertex="1" parent="1">
          <mxGeometry x="1530" y="1970.06" width="320" height="39.88" as="geometry" />
        </mxCell>
      </root>
    </mxGraphModel>
  </diagram>
</mxfile>
